<mxfile host="app.diagrams.net" agent="Mozilla/5.0 (Windows NT 10.0; Win64; x64) AppleWebKit/537.36 (KHTML, like Gecko) Chrome/131.0.0.0 Safari/537.36" version="25.0.3">
  <diagram id="C5RBs43oDa-KdzZeNtuy" name="Page-1">
    <mxGraphModel dx="2843" dy="1233" grid="1" gridSize="10" guides="1" tooltips="1" connect="1" arrows="1" fold="1" page="1" pageScale="1" pageWidth="827" pageHeight="1169" math="0" shadow="0">
      <root>
        <mxCell id="WIyWlLk6GJQsqaUBKTNV-0" />
        <mxCell id="WIyWlLk6GJQsqaUBKTNV-1" parent="WIyWlLk6GJQsqaUBKTNV-0" />
        <mxCell id="kfYBlO_teLR5De6Nn0ug-7" value="" style="edgeStyle=orthogonalEdgeStyle;rounded=0;orthogonalLoop=1;jettySize=auto;html=1;" edge="1" parent="WIyWlLk6GJQsqaUBKTNV-1" source="kfYBlO_teLR5De6Nn0ug-2" target="kfYBlO_teLR5De6Nn0ug-3">
          <mxGeometry relative="1" as="geometry" />
        </mxCell>
        <mxCell id="kfYBlO_teLR5De6Nn0ug-2" value="시작" style="rounded=1;whiteSpace=wrap;html=1;arcSize=50;fillColor=#fff2cc;strokeColor=#d6b656;" vertex="1" parent="WIyWlLk6GJQsqaUBKTNV-1">
          <mxGeometry x="190" y="200" width="100" height="40" as="geometry" />
        </mxCell>
        <mxCell id="kfYBlO_teLR5De6Nn0ug-6" value="" style="edgeStyle=orthogonalEdgeStyle;rounded=0;orthogonalLoop=1;jettySize=auto;html=1;" edge="1" parent="WIyWlLk6GJQsqaUBKTNV-1" source="kfYBlO_teLR5De6Nn0ug-3" target="kfYBlO_teLR5De6Nn0ug-5">
          <mxGeometry relative="1" as="geometry" />
        </mxCell>
        <mxCell id="kfYBlO_teLR5De6Nn0ug-3" value="csv주소 입력" style="shape=parallelogram;perimeter=parallelogramPerimeter;whiteSpace=wrap;html=1;fixedSize=1;rotation=0;fillColor=#d5e8d4;strokeColor=#82b366;" vertex="1" parent="WIyWlLk6GJQsqaUBKTNV-1">
          <mxGeometry x="185" y="290" width="110" height="40" as="geometry" />
        </mxCell>
        <mxCell id="kfYBlO_teLR5De6Nn0ug-5" value="주소를 입력했는가?" style="rhombus;whiteSpace=wrap;html=1;fillColor=#e1d5e7;strokeColor=#9673a6;" vertex="1" parent="WIyWlLk6GJQsqaUBKTNV-1">
          <mxGeometry x="167.5" y="370" width="145" height="80" as="geometry" />
        </mxCell>
        <mxCell id="kfYBlO_teLR5De6Nn0ug-8" value="&quot;여기에 csv파일 주소를 적어주세요. ^^&quot; 출력" style="rounded=0;whiteSpace=wrap;html=1;fillColor=#f8cecc;strokeColor=#b85450;" vertex="1" parent="WIyWlLk6GJQsqaUBKTNV-1">
          <mxGeometry x="380" y="380" width="120" height="60" as="geometry" />
        </mxCell>
        <mxCell id="kfYBlO_teLR5De6Nn0ug-9" value="No" style="edgeStyle=orthogonalEdgeStyle;rounded=0;html=1;jettySize=auto;orthogonalLoop=1;fontSize=11;endArrow=block;endFill=0;endSize=8;strokeWidth=1;shadow=0;labelBackgroundColor=none;entryX=0;entryY=0.5;entryDx=0;entryDy=0;" edge="1" parent="WIyWlLk6GJQsqaUBKTNV-1" target="kfYBlO_teLR5De6Nn0ug-8">
          <mxGeometry y="10" relative="1" as="geometry">
            <mxPoint as="offset" />
            <mxPoint x="312.5" y="409.5" as="sourcePoint" />
            <mxPoint x="362.5" y="409.5" as="targetPoint" />
          </mxGeometry>
        </mxCell>
        <mxCell id="kfYBlO_teLR5De6Nn0ug-10" value="Yes" style="rounded=0;html=1;jettySize=auto;orthogonalLoop=1;fontSize=11;endArrow=block;endFill=0;endSize=8;strokeWidth=1;shadow=0;labelBackgroundColor=none;edgeStyle=orthogonalEdgeStyle;" edge="1" parent="WIyWlLk6GJQsqaUBKTNV-1">
          <mxGeometry y="20" relative="1" as="geometry">
            <mxPoint as="offset" />
            <mxPoint x="239.77999999999997" y="479.98" as="sourcePoint" />
            <mxPoint x="239.77999999999997" y="519.98" as="targetPoint" />
            <Array as="points">
              <mxPoint x="239.77999999999997" y="449.98" />
            </Array>
          </mxGeometry>
        </mxCell>
        <mxCell id="kfYBlO_teLR5De6Nn0ug-12" value="주소를 올바르게 입력했는가?" style="rhombus;whiteSpace=wrap;html=1;fillColor=#e1d5e7;strokeColor=#9673a6;" vertex="1" parent="WIyWlLk6GJQsqaUBKTNV-1">
          <mxGeometry x="163.75" y="520" width="152.5" height="100" as="geometry" />
        </mxCell>
        <mxCell id="kfYBlO_teLR5De6Nn0ug-13" value="No" style="edgeStyle=orthogonalEdgeStyle;rounded=0;html=1;jettySize=auto;orthogonalLoop=1;fontSize=11;endArrow=block;endFill=0;endSize=8;strokeWidth=1;shadow=0;labelBackgroundColor=none;entryX=0;entryY=0.5;entryDx=0;entryDy=0;" edge="1" parent="WIyWlLk6GJQsqaUBKTNV-1">
          <mxGeometry x="-0.0121" y="10" relative="1" as="geometry">
            <mxPoint as="offset" />
            <mxPoint x="316.25" y="569.49" as="sourcePoint" />
            <mxPoint x="383.75" y="569.99" as="targetPoint" />
          </mxGeometry>
        </mxCell>
        <mxCell id="kfYBlO_teLR5De6Nn0ug-14" value="&quot;오류발생!!!&quot; 출력 후&amp;nbsp;&lt;div&gt;오류 원인 출력&lt;/div&gt;" style="rounded=0;whiteSpace=wrap;html=1;fillColor=#f8cecc;strokeColor=#b85450;" vertex="1" parent="WIyWlLk6GJQsqaUBKTNV-1">
          <mxGeometry x="384" y="540" width="120" height="60" as="geometry" />
        </mxCell>
        <mxCell id="kfYBlO_teLR5De6Nn0ug-15" value="Yes" style="rounded=0;html=1;jettySize=auto;orthogonalLoop=1;fontSize=11;endArrow=block;endFill=0;endSize=8;strokeWidth=1;shadow=0;labelBackgroundColor=none;edgeStyle=orthogonalEdgeStyle;" edge="1" parent="WIyWlLk6GJQsqaUBKTNV-1">
          <mxGeometry y="20" relative="1" as="geometry">
            <mxPoint as="offset" />
            <mxPoint x="239.77999999999997" y="650" as="sourcePoint" />
            <mxPoint x="239.77999999999997" y="690" as="targetPoint" />
            <Array as="points">
              <mxPoint x="239.77999999999997" y="620" />
            </Array>
          </mxGeometry>
        </mxCell>
        <mxCell id="kfYBlO_teLR5De6Nn0ug-16" value="&quot;찾기&quot; 버튼 클릭" style="rounded=0;whiteSpace=wrap;html=1;fillColor=#dae8fc;strokeColor=#6c8ebf;" vertex="1" parent="WIyWlLk6GJQsqaUBKTNV-1">
          <mxGeometry x="180" y="690" width="120" height="60" as="geometry" />
        </mxCell>
        <mxCell id="kfYBlO_teLR5De6Nn0ug-17" value="" style="rounded=0;html=1;jettySize=auto;orthogonalLoop=1;fontSize=11;endArrow=block;endFill=0;endSize=8;strokeWidth=1;shadow=0;labelBackgroundColor=none;edgeStyle=orthogonalEdgeStyle;" edge="1" parent="WIyWlLk6GJQsqaUBKTNV-1">
          <mxGeometry relative="1" as="geometry">
            <mxPoint x="239.62" y="750" as="sourcePoint" />
            <mxPoint x="239.62" y="800" as="targetPoint" />
          </mxGeometry>
        </mxCell>
        <mxCell id="kfYBlO_teLR5De6Nn0ug-18" value="2번 패널로 이동" style="rounded=0;whiteSpace=wrap;html=1;" vertex="1" parent="WIyWlLk6GJQsqaUBKTNV-1">
          <mxGeometry x="180" y="800" width="120" height="60" as="geometry" />
        </mxCell>
        <mxCell id="kfYBlO_teLR5De6Nn0ug-19" value="메뉴아이템&amp;nbsp;&lt;div&gt;&quot;버스 전체 시간표&quot; 클릭&lt;/div&gt;" style="rounded=0;whiteSpace=wrap;html=1;" vertex="1" parent="WIyWlLk6GJQsqaUBKTNV-1">
          <mxGeometry x="30" y="900" width="120" height="60" as="geometry" />
        </mxCell>
        <mxCell id="kfYBlO_teLR5De6Nn0ug-21" value="메뉴아이템&amp;nbsp;&lt;div&gt;&quot;버스 지도&quot; 클릭&lt;/div&gt;" style="rounded=0;whiteSpace=wrap;html=1;" vertex="1" parent="WIyWlLk6GJQsqaUBKTNV-1">
          <mxGeometry x="-300" y="900" width="120" height="60" as="geometry" />
        </mxCell>
        <mxCell id="kfYBlO_teLR5De6Nn0ug-23" value="" style="endArrow=classic;html=1;rounded=0;exitX=0;exitY=0.5;exitDx=0;exitDy=0;entryX=0.5;entryY=0;entryDx=0;entryDy=0;" edge="1" parent="WIyWlLk6GJQsqaUBKTNV-1" source="kfYBlO_teLR5De6Nn0ug-18" target="kfYBlO_teLR5De6Nn0ug-19">
          <mxGeometry width="50" height="50" relative="1" as="geometry">
            <mxPoint x="90" y="880" as="sourcePoint" />
            <mxPoint x="100" y="830" as="targetPoint" />
            <Array as="points">
              <mxPoint x="90" y="830" />
            </Array>
          </mxGeometry>
        </mxCell>
        <mxCell id="kfYBlO_teLR5De6Nn0ug-24" value="" style="endArrow=classic;html=1;rounded=0;exitX=1;exitY=0.5;exitDx=0;exitDy=0;entryX=0.5;entryY=0;entryDx=0;entryDy=0;" edge="1" parent="WIyWlLk6GJQsqaUBKTNV-1" source="kfYBlO_teLR5De6Nn0ug-18">
          <mxGeometry width="50" height="50" relative="1" as="geometry">
            <mxPoint x="140" y="910" as="sourcePoint" />
            <mxPoint x="456" y="900" as="targetPoint" />
            <Array as="points">
              <mxPoint x="456" y="830" />
            </Array>
          </mxGeometry>
        </mxCell>
        <mxCell id="kfYBlO_teLR5De6Nn0ug-25" value="입력한 시간이 17시 40분을 넘겼는가?" style="rhombus;whiteSpace=wrap;html=1;fillColor=#e1d5e7;strokeColor=#9673a6;" vertex="1" parent="WIyWlLk6GJQsqaUBKTNV-1">
          <mxGeometry x="350" y="990" width="210" height="160" as="geometry" />
        </mxCell>
        <mxCell id="kfYBlO_teLR5De6Nn0ug-27" value="&quot;입력하신 시간 이후에는 더 이상 출발하는 버스가 없습니다.&quot; 출력" style="rounded=0;whiteSpace=wrap;html=1;fillColor=#dae8fc;strokeColor=#6c8ebf;" vertex="1" parent="WIyWlLk6GJQsqaUBKTNV-1">
          <mxGeometry x="620" y="1040" width="220" height="60" as="geometry" />
        </mxCell>
        <mxCell id="kfYBlO_teLR5De6Nn0ug-35" value="" style="edgeStyle=orthogonalEdgeStyle;rounded=0;orthogonalLoop=1;jettySize=auto;html=1;" edge="1" parent="WIyWlLk6GJQsqaUBKTNV-1" source="kfYBlO_teLR5De6Nn0ug-28" target="kfYBlO_teLR5De6Nn0ug-34">
          <mxGeometry relative="1" as="geometry" />
        </mxCell>
        <mxCell id="kfYBlO_teLR5De6Nn0ug-28" value="가장 가까운 버스 출발시간 출력" style="rounded=0;whiteSpace=wrap;html=1;fillColor=#f8cecc;strokeColor=#b85450;" vertex="1" parent="WIyWlLk6GJQsqaUBKTNV-1">
          <mxGeometry x="372.5" y="1210" width="165" height="40" as="geometry" />
        </mxCell>
        <mxCell id="kfYBlO_teLR5De6Nn0ug-32" value="Yes" style="edgeStyle=orthogonalEdgeStyle;rounded=0;html=1;jettySize=auto;orthogonalLoop=1;fontSize=11;endArrow=block;endFill=0;endSize=8;strokeWidth=1;shadow=0;labelBackgroundColor=none;" edge="1" parent="WIyWlLk6GJQsqaUBKTNV-1">
          <mxGeometry y="10" relative="1" as="geometry">
            <mxPoint as="offset" />
            <mxPoint x="557.5" y="1069.5700000000002" as="sourcePoint" />
            <mxPoint x="620" y="1069.5700000000002" as="targetPoint" />
            <Array as="points">
              <mxPoint x="590" y="1069.5700000000002" />
              <mxPoint x="590" y="1069.5700000000002" />
            </Array>
          </mxGeometry>
        </mxCell>
        <mxCell id="kfYBlO_teLR5De6Nn0ug-33" value="No" style="rounded=0;html=1;jettySize=auto;orthogonalLoop=1;fontSize=11;endArrow=block;endFill=0;endSize=8;strokeWidth=1;shadow=0;labelBackgroundColor=none;edgeStyle=orthogonalEdgeStyle;" edge="1" parent="WIyWlLk6GJQsqaUBKTNV-1">
          <mxGeometry x="0.3333" y="20" relative="1" as="geometry">
            <mxPoint as="offset" />
            <mxPoint x="454.38" y="1150" as="sourcePoint" />
            <mxPoint x="454.38" y="1210" as="targetPoint" />
          </mxGeometry>
        </mxCell>
        <mxCell id="kfYBlO_teLR5De6Nn0ug-34" value="버스 몇 분 후 출발 출력" style="rounded=0;whiteSpace=wrap;html=1;" vertex="1" parent="WIyWlLk6GJQsqaUBKTNV-1">
          <mxGeometry x="372.5" y="1290" width="165" height="40" as="geometry" />
        </mxCell>
        <mxCell id="kfYBlO_teLR5De6Nn0ug-36" value="" style="endArrow=classic;html=1;rounded=0;exitX=0;exitY=0.5;exitDx=0;exitDy=0;entryX=0.48;entryY=-0.006;entryDx=0;entryDy=0;entryPerimeter=0;" edge="1" parent="WIyWlLk6GJQsqaUBKTNV-1" source="kfYBlO_teLR5De6Nn0ug-18" target="kfYBlO_teLR5De6Nn0ug-21">
          <mxGeometry width="50" height="50" relative="1" as="geometry">
            <mxPoint x="70" y="1110" as="sourcePoint" />
            <mxPoint x="-100" y="897" as="targetPoint" />
            <Array as="points">
              <mxPoint x="-242" y="830" />
            </Array>
          </mxGeometry>
        </mxCell>
        <mxCell id="kfYBlO_teLR5De6Nn0ug-37" value="" style="endArrow=classic;html=1;rounded=0;exitX=0.5;exitY=1;exitDx=0;exitDy=0;" edge="1" parent="WIyWlLk6GJQsqaUBKTNV-1" source="kfYBlO_teLR5De6Nn0ug-21">
          <mxGeometry width="50" height="50" relative="1" as="geometry">
            <mxPoint x="-260" y="1050" as="sourcePoint" />
            <mxPoint x="-240" y="1010" as="targetPoint" />
          </mxGeometry>
        </mxCell>
        <mxCell id="kfYBlO_teLR5De6Nn0ug-38" value="&quot;이전 화면&quot;버튼을&amp;nbsp;&lt;div&gt;눌렀는가?&lt;/div&gt;" style="rhombus;whiteSpace=wrap;html=1;fillColor=#e1d5e7;strokeColor=#9673a6;" vertex="1" parent="WIyWlLk6GJQsqaUBKTNV-1">
          <mxGeometry x="-310" y="1010" width="140" height="80" as="geometry" />
        </mxCell>
        <mxCell id="kfYBlO_teLR5De6Nn0ug-39" value="" style="endArrow=classic;html=1;rounded=0;exitX=0.5;exitY=1;exitDx=0;exitDy=0;" edge="1" parent="WIyWlLk6GJQsqaUBKTNV-1">
          <mxGeometry width="50" height="50" relative="1" as="geometry">
            <mxPoint x="93.75" y="960" as="sourcePoint" />
            <mxPoint x="93.75" y="1010" as="targetPoint" />
          </mxGeometry>
        </mxCell>
        <mxCell id="kfYBlO_teLR5De6Nn0ug-40" value="&quot;이전 화면&quot;버튼을&amp;nbsp;&lt;div&gt;눌렀는가?&lt;/div&gt;" style="rhombus;whiteSpace=wrap;html=1;fillColor=#e1d5e7;strokeColor=#9673a6;" vertex="1" parent="WIyWlLk6GJQsqaUBKTNV-1">
          <mxGeometry x="23.75" y="1010" width="140" height="80" as="geometry" />
        </mxCell>
        <mxCell id="kfYBlO_teLR5De6Nn0ug-43" value="No" style="edgeStyle=orthogonalEdgeStyle;rounded=0;html=1;jettySize=auto;orthogonalLoop=1;fontSize=11;endArrow=block;endFill=0;endSize=8;strokeWidth=1;shadow=0;labelBackgroundColor=none;entryX=1;entryY=0.5;entryDx=0;entryDy=0;" edge="1" parent="WIyWlLk6GJQsqaUBKTNV-1" target="kfYBlO_teLR5De6Nn0ug-44">
          <mxGeometry y="10" relative="1" as="geometry">
            <mxPoint as="offset" />
            <mxPoint x="-310" y="1050.5" as="sourcePoint" />
            <mxPoint x="-373" y="1049.75" as="targetPoint" />
            <Array as="points">
              <mxPoint x="-340" y="1050" />
            </Array>
          </mxGeometry>
        </mxCell>
        <mxCell id="kfYBlO_teLR5De6Nn0ug-44" value="지도 출력" style="rounded=0;whiteSpace=wrap;html=1;fillColor=#f8cecc;strokeColor=#b85450;" vertex="1" parent="WIyWlLk6GJQsqaUBKTNV-1">
          <mxGeometry x="-450" y="1030" width="70" height="40" as="geometry" />
        </mxCell>
        <mxCell id="kfYBlO_teLR5De6Nn0ug-45" value="No" style="edgeStyle=orthogonalEdgeStyle;rounded=0;html=1;jettySize=auto;orthogonalLoop=1;fontSize=11;endArrow=block;endFill=0;endSize=8;strokeWidth=1;shadow=0;labelBackgroundColor=none;entryX=1;entryY=0.5;entryDx=0;entryDy=0;" edge="1" parent="WIyWlLk6GJQsqaUBKTNV-1" target="kfYBlO_teLR5De6Nn0ug-46">
          <mxGeometry y="10" relative="1" as="geometry">
            <mxPoint as="offset" />
            <mxPoint x="23.75" y="1050" as="sourcePoint" />
            <mxPoint x="-25.5" y="1049.75" as="targetPoint" />
            <Array as="points">
              <mxPoint x="7.5" y="1050" />
            </Array>
          </mxGeometry>
        </mxCell>
        <mxCell id="kfYBlO_teLR5De6Nn0ug-46" value="버스 시간표 출력" style="rounded=0;whiteSpace=wrap;html=1;fillColor=#f8cecc;strokeColor=#b85450;" vertex="1" parent="WIyWlLk6GJQsqaUBKTNV-1">
          <mxGeometry x="-120" y="1030" width="87.5" height="40" as="geometry" />
        </mxCell>
        <mxCell id="kfYBlO_teLR5De6Nn0ug-47" value="Yes" style="rounded=0;html=1;jettySize=auto;orthogonalLoop=1;fontSize=11;endArrow=block;endFill=0;endSize=8;strokeWidth=1;shadow=0;labelBackgroundColor=none;edgeStyle=orthogonalEdgeStyle;" edge="1" parent="WIyWlLk6GJQsqaUBKTNV-1">
          <mxGeometry y="20" relative="1" as="geometry">
            <mxPoint as="offset" />
            <mxPoint x="-240.71000000000004" y="1120" as="sourcePoint" />
            <mxPoint x="-240.71000000000004" y="1160" as="targetPoint" />
            <Array as="points">
              <mxPoint x="-240.71000000000004" y="1090" />
            </Array>
          </mxGeometry>
        </mxCell>
        <mxCell id="kfYBlO_teLR5De6Nn0ug-48" value="Yes" style="rounded=0;html=1;jettySize=auto;orthogonalLoop=1;fontSize=11;endArrow=block;endFill=0;endSize=8;strokeWidth=1;shadow=0;labelBackgroundColor=none;edgeStyle=orthogonalEdgeStyle;" edge="1" parent="WIyWlLk6GJQsqaUBKTNV-1">
          <mxGeometry y="20" relative="1" as="geometry">
            <mxPoint as="offset" />
            <mxPoint x="93.46999999999997" y="1119.97" as="sourcePoint" />
            <mxPoint x="93.46999999999997" y="1159.97" as="targetPoint" />
            <Array as="points">
              <mxPoint x="93.46999999999997" y="1089.97" />
            </Array>
          </mxGeometry>
        </mxCell>
        <mxCell id="kfYBlO_teLR5De6Nn0ug-49" value="2번 패널로 이동" style="rounded=0;whiteSpace=wrap;html=1;fillColor=#dae8fc;strokeColor=#6c8ebf;" vertex="1" parent="WIyWlLk6GJQsqaUBKTNV-1">
          <mxGeometry x="-280" y="1160" width="400" height="80" as="geometry" />
        </mxCell>
        <mxCell id="kfYBlO_teLR5De6Nn0ug-50" value="" style="endArrow=classic;html=1;rounded=0;entryX=0.5;entryY=1;entryDx=0;entryDy=0;exitX=1;exitY=0.5;exitDx=0;exitDy=0;fillColor=#f8cecc;strokeColor=#B85450;" edge="1" parent="WIyWlLk6GJQsqaUBKTNV-1" source="kfYBlO_teLR5De6Nn0ug-49" target="kfYBlO_teLR5De6Nn0ug-18">
          <mxGeometry width="50" height="50" relative="1" as="geometry">
            <mxPoint x="140" y="1210" as="sourcePoint" />
            <mxPoint x="190" y="1160" as="targetPoint" />
            <Array as="points">
              <mxPoint x="240" y="1200" />
            </Array>
          </mxGeometry>
        </mxCell>
        <mxCell id="kfYBlO_teLR5De6Nn0ug-52" value="" style="edgeStyle=orthogonalEdgeStyle;rounded=0;orthogonalLoop=1;jettySize=auto;html=1;" edge="1" parent="WIyWlLk6GJQsqaUBKTNV-1" source="kfYBlO_teLR5De6Nn0ug-51" target="kfYBlO_teLR5De6Nn0ug-25">
          <mxGeometry relative="1" as="geometry" />
        </mxCell>
        <mxCell id="kfYBlO_teLR5De6Nn0ug-51" value="입력 칸에 시간과 분 입력" style="shape=parallelogram;perimeter=parallelogramPerimeter;whiteSpace=wrap;html=1;fixedSize=1;fillColor=#d5e8d4;strokeColor=#82b366;" vertex="1" parent="WIyWlLk6GJQsqaUBKTNV-1">
          <mxGeometry x="378" y="900" width="154" height="60" as="geometry" />
        </mxCell>
      </root>
    </mxGraphModel>
  </diagram>
</mxfile>
